<svg width="56" height="56" viewBox="0 0 56 56" fill="none" xmlns="http://www.w3.org/2000/svg">
<rect width="56" height="56" rx="7" fill="#FF4B4B"/>
<path d="M23.5 31.375C22.975 31.375 22.5312 31.1938 22.1688 30.8313C21.8063 30.4688 21.625 30.025 21.625 29.5C21.625 28.975 21.8063 28.5313 22.1688 28.1688C22.5312 27.8063 22.975 27.625 23.5 27.625C24.025 27.625 24.4688 27.8063 24.8313 28.1688C25.1938 28.5313 25.375 28.975 25.375 29.5C25.375 30.025 25.1938 30.4688 24.8313 30.8313C24.4688 31.1938 24.025 31.375 23.5 31.375ZM32.5 31.375C31.975 31.375 31.5312 31.1938 31.1688 30.8313C30.8063 30.4688 30.625 30.025 30.625 29.5C30.625 28.975 30.8063 28.5313 31.1688 28.1688C31.5312 27.8063 31.975 27.625 32.5 27.625C33.025 27.625 33.4688 27.8063 33.8313 28.1688C34.1938 28.5313 34.375 28.975 34.375 29.5C34.375 30.025 34.1938 30.4688 33.8313 30.8313C33.4688 31.1938 33.025 31.375 32.5 31.375ZM28 40C31.35 40 34.1875 38.8375 36.5125 36.5125C38.8375 34.1875 40 31.35 40 28C40 27.4 39.9625 26.8188 39.8875 26.2563C39.8125 25.6938 39.675 25.15 39.475 24.625C38.95 24.75 38.425 24.8438 37.9 24.9062C37.375 24.9688 36.825 25 36.25 25C33.975 25 31.825 24.5125 29.8 23.5375C27.775 22.5625 26.05 21.2 24.625 19.45C23.825 21.4 22.6813 23.0938 21.1938 24.5312C19.7063 25.9688 17.975 27.05 16 27.775V28C16 31.35 17.1625 34.1875 19.4875 36.5125C21.8125 38.8375 24.65 40 28 40ZM28 43C25.925 43 23.975 42.6063 22.15 41.8188C20.325 41.0313 18.7375 39.9625 17.3875 38.6125C16.0375 37.2625 14.9688 35.675 14.1813 33.85C13.3938 32.025 13 30.075 13 28C13 25.925 13.3938 23.975 14.1813 22.15C14.9688 20.325 16.0375 18.7375 17.3875 17.3875C18.7375 16.0375 20.325 14.9688 22.15 14.1813C23.975 13.3938 25.925 13 28 13C30.075 13 32.025 13.3938 33.85 14.1813C35.675 14.9688 37.2625 16.0375 38.6125 17.3875C39.9625 18.7375 41.0313 20.325 41.8188 22.15C42.6063 23.975 43 25.925 43 28C43 30.075 42.6063 32.025 41.8188 33.85C41.0313 35.675 39.9625 37.2625 38.6125 38.6125C37.2625 39.9625 35.675 41.0313 33.85 41.8188C32.025 42.6063 30.075 43 28 43Z" fill="white"/>
</svg>
