<svg width="56" height="56" viewBox="0 0 56 56" fill="none" xmlns="http://www.w3.org/2000/svg">
<rect width="56" height="56" rx="7" fill="#FF9600"/>
<mask id="mask0_266_223" style="mask-type:alpha" maskUnits="userSpaceOnUse" x="10" y="10" width="36" height="36">
<rect x="10" y="10" width="36" height="36" fill="#D9D9D9"/>
</mask>
<g mask="url(#mask0_266_223)">
<path d="M28 28C28 25.725 28.8062 23.7812 30.4188 22.1688C32.0312 20.5563 33.975 19.75 36.25 19.75C38.525 19.75 40.4688 20.5563 42.0813 22.1688C43.6938 23.7812 44.5 25.725 44.5 28H28ZM19.75 36.25C17.475 36.25 15.5312 35.4438 13.9188 33.8312C12.3063 32.2188 11.5 30.275 11.5 28H28C28 30.275 27.1937 32.2188 25.5812 33.8312C23.9688 35.4438 22.025 36.25 19.75 36.25ZM28 28C25.725 28 23.7812 27.1937 22.1688 25.5812C20.5563 23.9688 19.75 22.025 19.75 19.75C19.75 17.475 20.5563 15.5312 22.1688 13.9188C23.7812 12.3063 25.725 11.5 28 11.5V28ZM28 44.5V28C30.275 28 32.2188 28.8062 33.8312 30.4188C35.4438 32.0312 36.25 33.975 36.25 36.25C36.25 38.525 35.4438 40.4688 33.8312 42.0813C32.2188 43.6938 30.275 44.5 28 44.5Z" fill="white"/>
</g>
</svg>
