<svg width="19" height="20" viewBox="0 0 19 20" fill="none" xmlns="http://www.w3.org/2000/svg">
<path d="M13 10C13.2833 10 13.5208 9.90417 13.7125 9.7125C13.9042 9.52083 14 9.28333 14 9C14 8.71667 13.9042 8.47917 13.7125 8.2875C13.5208 8.09583 13.2833 8 13 8H9C8.71667 8 8.47917 8.09583 8.2875 8.2875C8.09583 8.47917 8 8.71667 8 9C8 9.28333 8.09583 9.52083 8.2875 9.7125C8.47917 9.90417 8.71667 10 9 10H13ZM13 6C13.2833 6 13.5208 5.90417 13.7125 5.7125C13.9042 5.52083 14 5.28333 14 5C14 4.71667 13.9042 4.47917 13.7125 4.2875C13.5208 4.09583 13.2833 4 13 4H9C8.71667 4 8.47917 4.09583 8.2875 4.2875C8.09583 4.47917 8 4.71667 8 5C8 5.28333 8.09583 5.52083 8.2875 5.7125C8.47917 5.90417 8.71667 6 9 6H13ZM14 17H12C11.7167 17 11.4792 16.9042 11.2875 16.7125C11.0958 16.5208 11 16.2833 11 16C11 15.7167 11.0958 15.4792 11.2875 15.2875C11.4792 15.0958 11.7167 15 12 15H14V13C14 12.7167 14.0958 12.4792 14.2875 12.2875C14.4792 12.0958 14.7167 12 15 12C15.2833 12 15.5208 12.0958 15.7125 12.2875C15.9042 12.4792 16 12.7167 16 13V15H18C18.2833 15 18.5208 15.0958 18.7125 15.2875C18.9042 15.4792 19 15.7167 19 16C19 16.2833 18.9042 16.5208 18.7125 16.7125C18.5208 16.9042 18.2833 17 18 17H16V19C16 19.2833 15.9042 19.5208 15.7125 19.7125C15.5208 19.9042 15.2833 20 15 20C14.7167 20 14.4792 19.9042 14.2875 19.7125C14.0958 19.5208 14 19.2833 14 19V17ZM5 14C5.28333 14 5.52083 13.9042 5.7125 13.7125C5.90417 13.5208 6 13.2833 6 13C6 12.7167 5.90417 12.4792 5.7125 12.2875C5.52083 12.0958 5.28333 12 5 12C4.71667 12 4.47917 12.0958 4.2875 12.2875C4.09583 12.4792 4 12.7167 4 13C4 13.2833 4.09583 13.5208 4.2875 13.7125C4.47917 13.9042 4.71667 14 5 14ZM5 10C5.28333 10 5.52083 9.90417 5.7125 9.7125C5.90417 9.52083 6 9.28333 6 9C6 8.71667 5.90417 8.47917 5.7125 8.2875C5.52083 8.09583 5.28333 8 5 8C4.71667 8 4.47917 8.09583 4.2875 8.2875C4.09583 8.47917 4 8.71667 4 9C4 9.28333 4.09583 9.52083 4.2875 9.7125C4.47917 9.90417 4.71667 10 5 10ZM5 6C5.28333 6 5.52083 5.90417 5.7125 5.7125C5.90417 5.52083 6 5.28333 6 5C6 4.71667 5.90417 4.47917 5.7125 4.2875C5.52083 4.09583 5.28333 4 5 4C4.71667 4 4.47917 4.09583 4.2875 4.2875C4.09583 4.47917 4 4.71667 4 5C4 5.28333 4.09583 5.52083 4.2875 5.7125C4.47917 5.90417 4.71667 6 5 6ZM2 18C1.45 18 0.979167 17.8042 0.5875 17.4125C0.195833 17.0208 0 16.55 0 16V2C0 1.45 0.195833 0.979167 0.5875 0.5875C0.979167 0.195833 1.45 0 2 0H16C16.55 0 17.0208 0.195833 17.4125 0.5875C17.8042 0.979167 18 1.45 18 2V9.525C18 9.825 17.8708 10.0583 17.6125 10.225C17.3542 10.3917 17.0833 10.4167 16.8 10.3C16.5167 10.2167 16.2208 10.15 15.9125 10.1C15.6042 10.05 15.3 10.025 15 10.025C14.1167 10.025 13.2917 10.2 12.525 10.55C11.7583 10.9 11.1 11.3833 10.55 12H9C8.71667 12 8.47917 12.0958 8.2875 12.2875C8.09583 12.4792 8 12.7167 8 13C8 13.2833 8.09583 13.5208 8.2875 13.7125C8.47917 13.9042 8.71667 14 9 14H9.35C9.23333 14.3167 9.14583 14.6417 9.0875 14.975C9.02917 15.3083 9 15.65 9 16C9 16.1333 9.00417 16.275 9.0125 16.425C9.02083 16.575 9.03333 16.7167 9.05 16.85C9.08333 17.15 9.0125 17.4167 8.8375 17.65C8.6625 17.8833 8.43333 18 8.15 18H2Z" fill="white"/>
</svg>
