<svg width="24" height="18" viewBox="0 0 24 18" fill="none" xmlns="http://www.w3.org/2000/svg">
<path d="M23.2969 9.79688L15.4219 17.6719C14.7188 18.375 13.5 17.8828 13.5 16.875V12.375H7.125C6.50156 12.375 6 11.8734 6 11.25V6.75C6 6.12656 6.50156 5.625 7.125 5.625H13.5V1.125C13.5 0.121876 14.7141 -0.374999 15.4219 0.328126L23.2969 8.20313C23.7328 8.64375 23.7328 9.35625 23.2969 9.79688ZM9 17.4375V15.5625C9 15.2531 8.74687 15 8.4375 15H4.5C3.67031 15 3 14.3297 3 13.5V4.5C3 3.67031 3.67031 3 4.5 3H8.4375C8.74687 3 9 2.74688 9 2.4375V0.562501C9 0.253126 8.74687 1.32865e-06 8.4375 1.32865e-06H4.5C2.01562 1.32865e-06 0 2.01563 0 4.5V13.5C0 15.9844 2.01562 18 4.5 18H8.4375C8.74687 18 9 17.7469 9 17.4375Z" fill="white"/>
</svg>
