<svg width="56" height="56" viewBox="0 0 56 56" fill="none" xmlns="http://www.w3.org/2000/svg">
<rect width="56" height="56" rx="7" fill="#2B70C9"/>
<path d="M28 35.9125L21.775 39.6625C21.5 39.8375 21.2125 39.9125 20.9125 39.8875C20.6125 39.8625 20.35 39.7625 20.125 39.5875C19.9 39.4125 19.725 39.1937 19.6 38.9312C19.475 38.6687 19.45 38.375 19.525 38.05L21.175 30.9625L15.6625 26.2C15.4125 25.975 15.2562 25.7187 15.1937 25.4312C15.1312 25.1437 15.15 24.8625 15.25 24.5875C15.35 24.3125 15.5 24.0875 15.7 23.9125C15.9 23.7375 16.175 23.625 16.525 23.575L23.8 22.9375L26.6125 16.2625C26.7375 15.9625 26.9313 15.7375 27.1938 15.5875C27.4563 15.4375 27.725 15.3625 28 15.3625C28.275 15.3625 28.5438 15.4375 28.8063 15.5875C29.0688 15.7375 29.2625 15.9625 29.3875 16.2625L32.2 22.9375L39.475 23.575C39.825 23.625 40.1 23.7375 40.3 23.9125C40.5 24.0875 40.65 24.3125 40.75 24.5875C40.85 24.8625 40.8688 25.1437 40.8063 25.4312C40.7438 25.7187 40.5875 25.975 40.3375 26.2L34.825 30.9625L36.475 38.05C36.55 38.375 36.525 38.6687 36.4 38.9312C36.275 39.1937 36.1 39.4125 35.875 39.5875C35.65 39.7625 35.3875 39.8625 35.0875 39.8875C34.7875 39.9125 34.5 39.8375 34.225 39.6625L28 35.9125Z" fill="white"/>
</svg>
